<?xml version="1.0"?>
<svg xmlns="http://www.w3.org/2000/svg" xmlns:xlink="http://www.w3.org/1999/xlink" version="1.1" id="Layer_1" x="0px" y="0px" viewBox="0 0 512 512" style="enable-background:new 0 0 512 512;" xml:space="preserve" width="512px" height="512px" class=""><g><g>
	<g>
		<path d="M234.105,169.687c-3.756-12.766-13.824-21.76-26.93-24.061c-23.478-4.121-46.892-6.366-69.658-6.672l-0.585-0.003    c-25.104,0-45.64,19.653-46.755,44.74c-1.033,23.264,0.046,46.793,3.206,69.936c2.268,16.615,16.474,25.308,29.334,25.308    c6.341,0,12.225-1.969,17.484-5.85c33.829-24.954,62.16-47.942,84.207-68.321C239.012,191.267,235.522,174.503,234.105,169.687z     M212.511,191.896c-21.576,19.943-49.404,42.515-82.715,67.087c-2.214,1.633-4.531,2.428-7.082,2.428    c-4.253,0-10.951-2.705-11.969-10.156c-3.018-22.102-4.048-44.572-3.062-66.787c0.696-15.698,13.544-27.993,29.191-27.993    l0.467,0.002c21.769,0.293,44.244,2.45,66.801,6.409c8.893,1.561,12.055,8.031,13.149,11.747    C218.185,177.669,219.506,185.43,212.511,191.896z" data-original="#000000" class="active-path" data-old_color="#000000" fill="#27324E"/>
	</g>
</g><g>
	<g>
		<path d="M421.822,183.688c-1.112-25.086-21.649-44.739-46.811-44.739l-0.591,0.004c-22.704,0.306-46.119,2.55-69.594,6.671    c-13.106,2.3-23.173,11.295-26.932,24.063c-1.416,4.817-4.902,21.58,9.697,35.076c22.048,20.38,50.379,43.365,84.206,68.32    c5.261,3.882,11.144,5.851,17.488,5.851c12.859,0,27.064-8.693,29.332-25.308C421.776,230.48,422.855,206.95,421.822,183.688z     M401.254,251.256c-1.018,7.45-7.715,10.155-11.97,10.155c-2.554,0-4.869-0.794-7.083-2.428    c-33.31-24.574-61.14-47.145-82.715-67.087c-6.993-6.465-5.672-14.227-4.781-17.261c1.096-3.717,4.26-10.187,13.151-11.748    c22.556-3.959,45.031-6.116,66.739-6.408l0.473-0.003c15.704,0,28.55,12.296,29.248,27.993    C405.302,206.68,404.272,229.151,401.254,251.256z" data-original="#000000" class="active-path" data-old_color="#000000" fill="#27324E"/>
	</g>
</g><g>
	<g>
		<path d="M506.886,327.145l-54.435-24.949c-2.112-0.969-4.522-1.057-6.701-0.249c-2.179,0.81-3.946,2.451-4.915,4.563    l-11.684,25.492l-15.823-7.255c1.948-7.784,3.326-15.729,4.102-23.746c16.44-8.824,27.566-24.68,30.123-43.422    c3.397-24.873,4.556-50.168,3.446-75.183c-0.881-19.844-9.322-38.282-23.77-51.916c-2.97-2.803-6.137-5.325-9.453-7.586    C389.132,59.48,326.136,18.601,256.42,18.439c-0.051-0.001-0.102-0.008-0.153-0.008c-0.025,0-0.047,0.004-0.071,0.004    c-0.064,0-0.128-0.004-0.194-0.004c-69.891,0-133.087,40.926-161.79,104.47c-3.314,2.259-6.479,4.779-9.448,7.58    c-14.447,13.634-22.889,32.072-23.77,51.916c-1.11,25.015,0.049,50.311,3.446,75.184C67,276.32,78.124,292.175,94.562,301    c0.777,8.019,2.155,15.965,4.103,23.749l-15.822,7.255l-11.684-25.492c-2.016-4.399-7.214-6.331-11.616-4.314L5.111,327.145    c-2.112,0.969-3.754,2.736-4.563,4.915c-0.808,2.179-0.72,4.589,0.249,6.701l14.841,32.379c2.016,4.399,7.218,6.33,11.616,4.314    c4.4-2.016,6.331-7.216,4.314-11.616l-11.19-24.414l38.504-17.647l61.309,133.765l-38.505,17.647l-38.033-82.983    c-2.015-4.399-7.213-6.332-11.616-4.314c-4.399,2.016-6.331,7.216-4.314,11.616l41.684,90.948c1.474,3.216,4.65,5.114,7.97,5.114    c1.221,0,2.463-0.257,3.646-0.799l54.435-24.949c4.4-2.016,6.331-7.216,4.314-11.616l-11.684-25.493l32.014-14.664    c22.72,16.677,49.363,27.136,77.4,30.324c0.068,0.007,0.137,0.014,0.206,0.021c6.046,0.682,30.541,0.682,36.583,0.001    c0.072-0.007,0.143-0.014,0.215-0.022c28.042-3.189,54.684-13.648,77.39-30.324l32.014,14.664l-11.684,25.494    c-2.016,4.4-0.084,9.6,4.314,11.616l54.434,24.949c1.157,0.53,2.403,0.797,3.651,0.797c1.032,0,2.066-0.182,3.05-0.548    c2.178-0.81,3.946-2.451,4.915-4.563l68.611-149.695C513.217,334.361,511.286,329.16,506.886,327.145z M433.495,183.171    c1.063,23.967-0.048,48.203-3.303,72.036c-1.969,14.413-11.172,26.41-24.62,32.093c-13.612,5.749-28.828,3.951-40.711-4.815    c-34.176-25.213-62.842-48.475-85.202-69.143c-9.671-8.941-14.837-20.767-14.918-33.226c0.003-0.437,0.008-0.874,0.002-1.311    c0.091-4.107,0.722-8.271,1.942-12.419c5.039-17.12,18.541-29.184,36.12-32.269c24.09-4.229,48.131-6.533,71.457-6.846    c0.273-0.004,0.546-0.006,0.819-0.006C406.51,127.266,432.094,151.672,433.495,183.171z M247.506,36.204V62.57    c0,4.839,3.923,8.762,8.762,8.762c4.84,0,8.762-3.923,8.762-8.762V36.233c52.37,2.943,99.652,31.317,126.97,75.409    c-5.831-1.325-11.855-1.972-17.974-1.893c-24.26,0.327-49.242,2.719-74.252,7.109c-13.588,2.386-25.623,8.93-34.745,18.406V90.607    c0-4.839-3.922-8.762-8.762-8.762c-4.839,0-8.762,3.923-8.762,8.762v45.229c-9.185-9.784-21.425-16.546-35.284-18.979    c-25.011-4.39-49.993-6.782-74.251-7.109c-6.116-0.078-12.143,0.571-17.979,1.898C147.403,67.404,194.917,38.984,247.506,36.204z     M81.807,255.207c-3.255-23.833-4.366-48.07-3.303-72.036c1.398-31.502,26.98-55.906,58.413-55.906    c0.27,0,0.547,0.001,0.818,0.006c23.325,0.314,47.367,2.618,71.458,6.846c17.579,3.085,31.081,15.148,36.12,32.269    c1.22,4.145,1.851,8.309,1.942,12.414c-0.006,0.443-0.001,0.884,0.002,1.327c-0.084,12.454-5.249,24.277-14.918,33.214    c-22.361,20.668-51.026,43.932-85.201,69.142c-11.883,8.766-27.099,10.565-40.71,4.816    C92.979,281.618,83.775,269.62,81.807,255.207z M120.79,414.78l-30.638-66.848l13.733-6.298    c8.09,21.776,20.903,41.766,37.426,58.276c1.254,1.255,2.54,2.488,3.844,3.709L120.79,414.78z M166.647,399.021    c-4.54-3.583-8.895-7.452-12.948-11.504c-16.858-16.847-29.387-37.746-36.23-60.436c-1.945-6.449-3.434-13.053-4.461-19.742    c3.217,0.541,6.451,0.826,9.677,0.826c12.321-0.001,24.482-3.923,34.854-11.575c34.693-25.594,63.861-49.271,86.693-70.377    c1.136-1.05,2.227-2.133,3.272-3.248v58.234c-42.267,4.27-75.367,40.057-75.367,83.43c0,17.789,5.574,34.296,15.058,47.883    C180.01,408.622,173.131,404.119,166.647,399.021z M345.358,399.016c-6.478,5.094-13.359,9.58-20.54,13.469    c9.472-13.581,15.038-30.08,15.038-47.857c0-11.316-2.217-22.298-6.593-32.643c-1.884-4.458-7.03-6.541-11.483-4.658    c-4.457,1.884-6.544,7.026-4.658,11.483c3.457,8.174,5.209,16.861,5.209,25.819c0,36.578-29.757,66.335-66.334,66.335    c-36.577,0-66.335-29.757-66.335-66.335c0-36.578,29.757-66.335,66.335-66.335c14.656,0,28.546,4.681,40.167,13.538    c3.848,2.935,9.347,2.191,12.28-1.657c2.934-3.848,2.192-9.346-1.658-12.28c-12.287-9.365-26.577-15.023-41.755-16.633v-57.741    c0.882,0.917,1.789,1.818,2.734,2.692c22.832,21.104,52,44.782,86.693,70.376c10.373,7.652,22.533,11.575,34.854,11.575    c3.224,0,6.457-0.285,9.675-0.825c-1.026,6.688-2.514,13.293-4.459,19.74C385.91,355.618,368.908,380.492,345.358,399.016z     M366.847,403.619c18.448-17.239,32.491-38.343,41.245-61.997l13.756,6.308l-30.639,66.849L366.847,403.619z M430.31,473.189    l-38.503-17.647l61.309-133.765l38.503,17.647L430.31,473.189z" data-original="#000000" class="active-path" data-old_color="#000000" fill="#27324E"/>
	</g>
</g><g>
	<g>
		<path d="M236.119,332.273c-3.411-3.423-8.961-3.435-12.384-0.012c-3.435,3.411-3.435,8.961-0.023,12.395    c1.706,1.706,3.961,2.57,6.204,2.57s4.474-0.853,6.192-2.559C239.53,341.257,239.542,335.707,236.119,332.273z" data-original="#000000" class="active-path" data-old_color="#000000" fill="#27324E"/>
	</g>
</g><g>
	<g>
		<path d="M256.038,318.919c-4.838,0-8.762,3.914-8.762,8.762c-0.012,4.837,3.914,8.762,8.75,8.762h0.013    c4.837,0,8.749-3.914,8.762-8.75C264.8,322.856,260.886,318.931,256.038,318.919z" data-original="#000000" class="active-path" data-old_color="#000000" fill="#27324E"/>
	</g>
</g><g>
	<g>
		<path d="M288.329,332.331c-3.411-3.435-8.961-3.435-12.395-0.012c-3.423,3.423-3.423,8.972,0,12.395    c1.705,1.706,3.96,2.57,6.204,2.57c2.231,0,4.475-0.865,6.192-2.57C291.752,341.292,291.752,335.754,288.329,332.331z" data-original="#000000" class="active-path" data-old_color="#000000" fill="#27324E"/>
	</g>
</g><g>
	<g>
		<path d="M292.944,355.86c-4.813,0-8.728,3.89-8.762,8.692c0,0.07,0,0.129,0,0.187c-0.025,4.848,3.878,8.785,8.727,8.797    c0.012,0,0.023,0,0.035,0c4.813,0,8.739-3.89,8.762-8.727c0-0.035,0-0.07,0-0.117c0-0.023,0-0.047,0-0.058    C301.706,359.786,297.781,355.86,292.944,355.86z" data-original="#000000" class="active-path" data-old_color="#000000" fill="#27324E"/>
	</g>
</g><g>
	<g>
		<path d="M288.246,384.67c-3.41-3.435-8.96-3.446-12.394-0.047c-3.435,3.411-3.458,8.961-0.047,12.395    c1.717,1.729,3.971,2.594,6.214,2.594s4.474-0.853,6.18-2.547C291.634,393.654,291.658,388.105,288.246,384.67z" data-original="#000000" class="active-path" data-old_color="#000000" fill="#27324E"/>
	</g>
</g><g>
	<g>
		<path d="M219.074,355.79c-4.837-0.012-8.774,3.902-8.774,8.75c-0.012,4.837,3.902,8.762,8.739,8.774h0.012    c4.837,0,8.762-3.914,8.762-8.75C227.824,359.727,223.91,355.802,219.074,355.79z" data-original="#000000" class="active-path" data-old_color="#000000" fill="#27324E"/>
	</g>
</g><g>
	<g>
		<path d="M255.91,392.813c-4.837-0.023-8.774,3.89-8.786,8.727c-0.012,4.848,3.89,8.774,8.727,8.797c0.012,0,0.023,0,0.035,0    c4.825,0,8.75-3.914,8.762-8.739C264.66,396.762,260.746,392.825,255.91,392.813z" data-original="#000000" class="active-path" data-old_color="#000000" fill="#27324E"/>
	</g>
</g><g>
	<g>
		<path d="M236.025,384.506c-3.423-3.435-8.961-3.446-12.395-0.035s-3.446,8.961-0.035,12.395c1.717,1.717,3.96,2.582,6.215,2.582    c2.231,0,4.463-0.853,6.18-2.559C239.413,393.479,239.437,387.929,236.025,384.506z" data-original="#000000" class="active-path" data-old_color="#000000" fill="#27324E"/>
	</g>
</g></g> </svg>
