<?xml version="1.0" encoding="iso-8859-1"?>
<!-- Generator: Adobe Illustrator 19.0.0, SVG Export Plug-In . SVG Version: 6.00 Build 0)  -->
<svg version="1.1" id="Layer_1" xmlns="http://www.w3.org/2000/svg" xmlns:xlink="http://www.w3.org/1999/xlink" x="0px" y="0px"
	 viewBox="0 0 511.976 511.976" style="enable-background:new 0 0 511.976 511.976;" xml:space="preserve">
<polygon style="fill:#E6E9ED;" points="388.405,70.231 324.407,6.233 318.158,0 309.314,0 31.994,0 10.667,0 10.667,21.327 
	10.667,490.634 10.667,511.976 31.994,511.976 373.312,511.976 394.655,511.976 394.655,490.634 394.655,85.325 394.655,76.481 "/>
<polygon style="fill:#F6BB42;" points="159.99,469.322 127.991,458.634 95.992,469.322 95.992,397.98 159.99,397.98 "/>
<path style="fill:#FFCE54;" d="M181.318,373.324c0,29.438-23.875,53.312-53.327,53.312s-53.327-23.874-53.327-53.312
	c0-29.468,23.875-53.342,53.327-53.342S181.318,343.856,181.318,373.324z"/>
<path style="fill:#5D9CEC;" d="M319.986,373.324h-63.998c-5.89,0-10.671,4.75-10.671,10.656s4.781,10.656,10.671,10.656h63.999
	c5.89,0,10.671-4.75,10.671-10.656S325.876,373.324,319.986,373.324z"/>
<g>
	<path style="fill:#434A54;" d="M85.321,213.321h234.666c5.89,0,10.671-4.781,10.671-10.671c0-5.891-4.781-10.672-10.671-10.672
		H85.321c-5.89,0-10.656,4.781-10.656,10.672C74.665,208.54,79.43,213.321,85.321,213.321z"/>
	<path style="fill:#434A54;" d="M319.986,255.976H85.321c-5.89,0-10.656,4.781-10.656,10.672c0,5.897,4.766,10.679,10.656,10.679
		h234.666c5.89,0,10.671-4.781,10.671-10.679C330.657,260.758,325.876,255.976,319.986,255.976z"/>
	<path style="fill:#434A54;" d="M85.321,149.323h117.34c5.891,0,10.656-4.781,10.656-10.672c0-5.89-4.766-10.671-10.656-10.671
		H85.321c-5.89,0-10.656,4.781-10.656,10.671C74.665,144.542,79.43,149.323,85.321,149.323z"/>
</g>
<polygon style="fill:#FFCE54;" points="472.809,362.636 444.482,362.636 415.983,462.197 458.653,490.634 501.309,462.197 "/>
<path style="fill:#434A54;" d="M458.653,85.325c-23.576,0-42.67,19.093-42.67,42.655v287.999h85.326V127.98
	C501.309,104.418,482.216,85.325,458.653,85.325z"/>
<path style="fill:#F6BB42;" d="M138.663,373.324c0,5.875-4.781,10.656-10.671,10.656c-5.89,0-10.671-4.781-10.671-10.656
	c0-5.906,4.781-10.688,10.671-10.688C133.882,362.636,138.663,367.418,138.663,373.324z"/>
<polygon style="fill:#CCD1D9;" points="394.655,76.481 318.158,76.481 318.158,0 "/>
<g>
</g>
<g>
</g>
<g>
</g>
<g>
</g>
<g>
</g>
<g>
</g>
<g>
</g>
<g>
</g>
<g>
</g>
<g>
</g>
<g>
</g>
<g>
</g>
<g>
</g>
<g>
</g>
<g>
</g>
</svg>
