<?xml version="1.0" encoding="iso-8859-1"?>
<!-- Generator: Adobe Illustrator 19.0.0, SVG Export Plug-In . SVG Version: 6.00 Build 0)  -->
<svg version="1.1" id="Layer_1" xmlns="http://www.w3.org/2000/svg" xmlns:xlink="http://www.w3.org/1999/xlink" x="0px" y="0px"
	 viewBox="0 0 481.882 481.882" style="enable-background:new 0 0 481.882 481.882;" xml:space="preserve">
<path style="fill:#3A556A;" d="M458.993,74.089v304.188H22.889V74.089c0-6.024,4.819-11.445,11.445-11.445h413.816
	C454.174,62.645,458.993,67.464,458.993,74.089z"/>
<rect y="377.675" style="fill:#EBF0F3;" width="481.882" height="31.322"/>
<g>
	<polygon style="fill:#D5D6DB;" points="481.28,409.6 0.602,409.6 33.732,419.238 448.151,419.238 	"/>
	<rect x="207.209" y="389.722" style="fill:#D5D6DB;" width="67.464" height="7.228"/>
</g>
<rect x="49.393" y="86.739" style="fill:#64798A;" width="383.096" height="46.381"/>
<rect x="63.849" y="99.388" style="fill:#EBF0F3;" width="240.339" height="21.082"/>
<circle style="fill:#FCD462;" cx="334.306" cy="110.231" r="10.24"/>
<circle style="fill:#44C4A1;" cx="371.652" cy="110.231" r="10.24"/>
<circle style="fill:#E56353;" cx="408.998" cy="110.231" r="10.24"/>
<rect x="49.393" y="133.12" style="fill:#FFFFFF;" width="383.096" height="216.245"/>
<path style="fill:#E1E6E9;" d="M112.038,194.56c-16.264,0-28.913,13.252-28.913,28.913s13.252,28.913,28.913,28.913h209.016V194.56
	L112.038,194.56L112.038,194.56z"/>
<path style="fill:#3A556A;" d="M369.845,194.56h-48.188v57.826h48.188c16.264,0,28.913-13.252,28.913-28.913
	S385.506,194.56,369.845,194.56z"/>
<path style="fill:#EBF0F3;" d="M112.038,189.139c-16.264,0-28.913,13.252-28.913,28.913s13.252,28.913,28.913,28.913h209.016
	v-57.826H112.038z"/>
<g>
	<path style="fill:#64798A;" d="M369.845,189.139h-48.188v57.826h48.188c16.264,0,28.913-13.252,28.913-28.913
		S385.506,189.139,369.845,189.139z"/>
	<rect x="112.64" y="199.379" style="fill:#64798A;" width="7.831" height="37.346"/>
</g>
<path style="fill:#FFFFFF;" d="M380.687,233.111l-12.047-12.047c3.614-6.024,2.409-13.854-2.409-18.673
	c-6.024-6.024-16.264-6.024-22.287,0s-6.024,16.264,0,22.287c3.012,3.012,6.626,4.819,10.842,4.819c3.012,0,5.421-0.602,7.831-2.409
	l12.047,12.047L380.687,233.111z M349.967,218.654c-1.205-1.205-2.409-3.614-2.409-5.421s0.602-4.216,2.409-5.421
	c1.205-1.205,3.614-2.409,5.421-2.409c1.807,0,4.216,0.602,5.421,2.409c1.205,1.205,2.409,3.614,2.409,5.421
	c0,1.807-0.602,4.216-2.409,5.421C357.798,221.666,352.376,221.666,349.967,218.654z"/>
<g>
</g>
<g>
</g>
<g>
</g>
<g>
</g>
<g>
</g>
<g>
</g>
<g>
</g>
<g>
</g>
<g>
</g>
<g>
</g>
<g>
</g>
<g>
</g>
<g>
</g>
<g>
</g>
<g>
</g>
</svg>
