<?xml version="1.0"?>
<svg xmlns="http://www.w3.org/2000/svg" xmlns:xlink="http://www.w3.org/1999/xlink" version="1.1" id="Capa_1" x="0px" y="0px" viewBox="0 0 509.551 509.551" style="enable-background:new 0 0 509.551 509.551;" xml:space="preserve" width="512px" height="512px" class=""><g><g>
	<path d="M498.679,115.158c-1.384-9.878-7.178-18.323-15.898-23.167L428.022,61.57c-8.816-4.898-13.781-14.896-12.355-24.88   l1.411-9.879c1.04-7.283-1.445-14.737-6.647-19.939c-9.162-9.162-24.069-9.162-33.23,0L266.002,118.069L17.431,366.64   c-9.162,9.163-9.162,24.071,0,33.234l68.236,68.236l-6.011,6.011c-2.929,2.929-2.929,7.678,0,10.606l22.627,22.627   c1.464,1.464,3.384,2.197,5.303,2.197s3.839-0.732,5.303-2.197l3.513-3.513c0.001-0.001,0.002-0.002,0.002-0.002l22.625-22.625   c0.001-0.001,0.002-0.002,0.002-0.002l22.625-22.625c0.001-0.001,0.002-0.002,0.002-0.002l22.625-22.625   c0.001-0.001,0.002-0.002,0.002-0.002l22.625-22.625c0.001-0.001,0.002-0.002,0.002-0.002l22.625-22.625   c0.001-0.001,0.002-0.002,0.002-0.002l22.625-22.625c0.001-0.001,0.002-0.002,0.002-0.002l22.625-22.625   c0.001-0.001,0.002-0.002,0.002-0.002l22.625-22.625c0.001-0.001,0.002-0.002,0.002-0.002l22.625-22.625   c0.001-0.001,0.002-0.002,0.002-0.002l22.625-22.625c0.001-0.001,0.002-0.002,0.002-0.002l22.625-22.625   c0.001-0.001,0.002-0.002,0.002-0.002l22.625-22.625c0.001-0.001,0.002-0.002,0.002-0.002l28.283-28.283   c0.443-0.443,0.81-0.93,1.119-1.444l4.332,1.444c0.777,0.259,1.577,0.385,2.371,0.385c1.958,0,3.875-0.768,5.304-2.197   l60.414-60.414C496.811,134.748,500.062,125.037,498.679,115.158z M28.038,389.267c-3.314-3.314-3.314-8.707,0-12.021   l243.268-243.267L283.326,146L51.372,377.954c-2.929,2.929-2.929,7.678,0,10.606l56.922,56.922l-2.495,2.495   c0,0-0.001,0.001-0.002,0.002l-9.523,9.523L28.038,389.267z M118.601,456.388l7.627-7.627v24.042l-7.627,7.627V456.388z    M141.229,433.761l7.627-7.627v24.042l-7.627,7.627V433.761z M163.856,411.134l7.627-7.627v24.042l-7.627,7.627V411.134z    M186.484,388.506l7.627-7.627v24.042l-7.627,7.627V388.506z M209.111,365.879l7.627-7.627v24.042l-7.627,7.627V365.879z    M231.739,343.251l7.627-7.627v24.042l-7.627,7.627V343.251z M254.366,320.624l7.627-7.627v24.042l-7.627,7.627V320.624z    M276.994,297.996l7.627-7.627v24.042l-7.627,7.627V297.996z M299.621,275.369l7.627-7.627v24.042l-7.627,7.627V275.369z    M322.248,252.741l7.627-7.627v24.042l-7.627,7.627V252.741z M344.876,230.114l7.627-7.627v24.042l-7.627,7.627V230.114z    M367.503,207.486l7.627-7.627v24.042l-7.627,7.627V207.486z M218.935,334.842L218.935,334.842l-22.627,22.627c0,0,0,0,0,0   l-22.627,22.627c0,0-0.001,0.001-0.001,0.001l-22.626,22.626c0,0-0.001,0.001-0.001,0.001l-22.626,22.626   c-0.001,0.001-0.001,0.001-0.002,0.002l-9.524,9.524l-51.619-51.619l226.873-226.873c6.809,5.641,14.67,10.028,23.053,12.822   l50.522,16.841L218.935,334.842z M95.566,479.424l6.011-6.011l0,0l0,0l2.024-2.024v16.07L95.566,479.424z M390.131,208.901v-15.387   l11.54,3.847L390.131,208.901z M479.151,131.195l-57.136,57.136l-100.063-33.355c-8.277-2.759-15.915-7.479-22.085-13.649   l-17.955-17.955L387.807,17.478c1.605-1.605,3.739-2.489,6.009-2.489s4.404,0.884,6.008,2.489c1.882,1.882,2.781,4.578,2.404,7.212   l-1.411,9.879c-2.298,16.096,5.707,32.217,19.921,40.113l54.758,30.421c4.568,2.537,7.603,6.96,8.328,12.135   S482.846,127.5,479.151,131.195z" data-original="#000000" class="active-path" data-old_color="#000000" fill="#27324E"/>
	<path d="M449.227,108.03l-76.014-37.123c-5.946-2.904-13.084-1.712-17.762,2.968l-38.538,38.537   c-1.407,1.406-2.197,3.314-2.197,5.303c0,1.989,0.79,3.897,2.197,5.303l0.63,0.63c7.808,7.808,17.472,13.781,27.947,17.272   l70.521,23.507c0.777,0.259,1.577,0.385,2.371,0.385c1.958,0,3.875-0.768,5.304-2.197l29.699-29.698   c3.534-3.533,5.151-8.585,4.328-13.514C456.89,114.475,453.717,110.223,449.227,108.03z M442.779,122.312l-26.421,26.421   l-66.123-22.041c-6.184-2.061-12.01-5.217-17.133-9.253l32.957-32.957c0.151-0.151,0.381-0.189,0.573-0.096l76.014,37.123   c0.075,0.037,0.232,0.113,0.274,0.367C442.96,122.13,442.838,122.253,442.779,122.312z" data-original="#000000" class="active-path" data-old_color="#000000" fill="#27324E"/>
</g></g> </svg>
