<svg id="Capa_1" data-name="Capa 1" xmlns="http://www.w3.org/2000/svg" viewBox="0 0 1706.85 969.23"><defs><style>.cls-1,.cls-2{fill:#fff;}.cls-2,.cls-4{opacity:0.95;}.cls-3,.cls-4{fill:none;stroke:#fff;stroke-miterlimit:10;stroke-width:19px;}</style></defs><title>OpusClickLogoXLWhiteSVG</title><path class="cls-1" d="M1263.17,75.35l-81.76,37.27s47.5,19.83,91.12,122.13c0,0,47.49,119.74,47.49,132.44l77.86-23.8S1330.13,136.41,1263.17,75.35ZM1339,343.5c-10.37,0-18-8.48-18.5-18.5s8.82-18.5,18.5-18.5c10.37,0,18,8.48,18.5,18.5S1348.68,343.5,1339,343.5Z" transform="translate(-136.44 -44)"/><path class="cls-1" d="M136.44,793.89c.15-83.14,48.1-140.19,126.67-140,79,.18,126.7,58.25,126.54,140.59-.16,83.54-46.55,139.79-127.06,139.6S136.28,877,136.44,793.89Zm54.06.12c-.1,53.16,22.78,93.19,72.18,93.3s72.8-38.2,72.9-93c.11-53.56-23.16-92-72.56-92.1S190.6,741.25,190.5,794Z" transform="translate(-136.44 -44)"/><path class="cls-1" d="M467.08,986.91q-.06,26.37-25.72,26.32l-26.06-.06.37-202.25c2.84-63.15,34.8-94.25,96.64-94.11Q608,717,607.8,823.75c-.14,72-27.43,109.06-82.28,110.93-25.67-.06-45.1-10.9-58.28-32.91Zm44.14-99.83c28,.07,42.43-20.29,43.67-61.05.08-42.77-14.66-64-44.22-64.06s-43.6,21.09-43.29,63.86C468.86,866.6,483.21,887,511.22,887.08Z" transform="translate(-136.44 -44)"/><path class="cls-1" d="M805,847c-.07,36.37-9.06,60.33-27.37,71.88a117.25,117.25,0,0,1-60.7,16.25c-21.4,0-40.45-6.09-58.31-18.12-17.88-11.63-26.78-34.84-26.71-70.41l.24-127.11,51.73.12-.26,137.9c0,23.58,11.6,35.2,34.94,35.25s35-11.51,35.07-35.09l.21-111.52c-.35-17.59,7.83-26.36,25-26.32l26.44.06Z" transform="translate(-136.44 -44)"/><path class="cls-1" d="M917.27,893.21c21.79,0,32.69-6.32,32.71-19.91,0-10.79-17.85-19.63-53.23-26.1-45.5-8.5-68.8-29.34-69.12-62.52.08-45.56,35.13-67.06,82.2-67.76q39.66.11,63,18.14,22.73,18.63,24.41,51.61l-32.67-.07c-12.06-.43-19.83-4.84-22.93-13.24-3.48-9.2-14-14.43-31.09-14.47-20.22,0-30.34,5.53-30.37,16.32s13.19,19.22,40,24.48c35,7.27,57.93,16.52,69.19,27.34,9.7,10.41,14.35,23.21,14.32,37.6-.1,52-39.81,71.06-94.26,70.93-28.79-.06-50.56-6.51-64.54-18.93-15.53-12-23.28-30.43-23.23-54.82l52.9.13C875.67,885.12,892,893.15,917.27,893.21Z" transform="translate(-136.44 -44)"/><path class="cls-1" d="M1145.51,936.11c-81.3-.19-121.64-55.44-121.48-140.18.16-87.54,43-140.2,126.67-140,32.28.08,58.33,8.13,78.13,25,18.64,17.24,29.1,40.84,31.77,70.43l-32.68-.08c-11.66,0-20.21-5.64-25.25-16.45-8.91-19.6-26.39-29.63-52.06-29.69-50.18-.12-72.42,36.2-72.52,91-.1,53.16,21.22,90.78,70.62,90.9,33.84.08,53.33-19.06,59.22-49l52.51.12C1255.26,900.78,1212.41,936.26,1145.51,936.11Z" transform="translate(-136.44 -44)"/><path class="cls-1" d="M1338.51,686.73l-.46,245.82-51.74-.12.51-271.8,26.84.07C1327.27,660.73,1338.53,672.74,1338.51,686.73Z" transform="translate(-136.44 -44)"/><path class="cls-1" d="M1402.22,721.25c16.73,0,24.88,8.46,24.85,25.64l-.35,185.86-51.73-.11.39-211.45Zm.12-60.35c17.11,0,25.26,8.85,24.84,26l0,15.59-51.73-.12.08-41.57Z" transform="translate(-136.44 -44)"/><path class="cls-1" d="M1550,937.83c-62.23-.14-94.06-37-95.48-109.73.13-72.35,31.71-108.65,95.11-109.7,49.79.11,79.31,23,88.17,69l-56.4-.13c-6.2-14.41-17.08-22-33.41-22.06-27.23-.07-40.88,21.09-41,63.06s14.27,63.18,43.06,62.85c12.05,0,22.57-5.14,31.14-15.12a23.53,23.53,0,0,1,17.52-7.55l38.9.09C1628.24,911.63,1597.85,939.14,1550,937.83Z" transform="translate(-136.44 -44)"/><path class="cls-1" d="M1717,687.6l-.22,117.12,63.93-75,62.23.14L1771.57,808l71.72,125.67-62.24-.14-36.43-69.63q-9.88-18-19.8-18c-5.45,1.18-8.18,4.77-8.19,10.37l-.14,77.14-51.74-.12.51-271.8,26.84.07C1705.71,661.6,1717,673.61,1717,687.6Z" transform="translate(-136.44 -44)"/><path class="cls-2" d="M578,58.1c-44.43,76.34-145.83,254.64-146.58,257.75-.56,3.29,4.48,6.95,35.1,25.45,21.66,12.81,37.54,21.23,39.78,20.86,2.8-.36,22-32.4,81-135.1,42.39-74,76.93-135.83,76.75-137.11C663.55,87,593,44,588.86,44,587.55,44,582.69,50.41,578,58.1Z" transform="translate(-136.44 -44)"/><path class="cls-3" d="M910.86,123.55c-29.12,2.38-59,7.14-74.5,11.91-11.58,3.65-15.5,5.85-20.73,11.71C805,159.43,761.29,220.21,749,240c-11,17.57-11.77,19.58-12,30.2-.19,10.81,0,11.53,5.23,13.91,6.73,3.3,28.39.56,43.88-5.67,22.22-8.79,50.61-32,65.55-54l6.53-9.51,23.16-7.33c12.7-4,24.84-7.32,26.88-7.32,6.54,0,85.15,41.56,128.28,67.92,41.83,25.45,118,78.72,161.34,113l22,17.57,7.84-4.21c12.33-7,25.21-17.21,42-33.68l15.68-15.57-59.38-103.06c-32.49-56.74-59.76-103.79-60.5-104.71-.75-.73-8.4.55-17,2.56-21.1,5.31-38.47,4-80.3-5.31-48.36-11-67.22-13.18-105.69-13C944.1,121.91,921,122.64,910.86,123.55Z" transform="translate(-136.44 -44)"/><path class="cls-4" d="M614.15,244.37l-61,106.37,9.7,11.15c5.42,6.23,13.82,16.48,18.86,22.7,5,6.41,9.34,11.53,9.71,11.53s4.48-2.74,9-6.23c25-18.66,61.43-8.41,77.12,21.6l4.48,8.79,8.4-11.16c10.83-14.47,21.85-20.32,38.65-20.32a54.25,54.25,0,0,1,54.34,53.45l.18,12.44h6.91c10.64,0,29.13,10.25,37.34,21.06,8.22,10.43,13.45,25.45,12.33,35.7l-.56,6.95,8.4,1.28c19.05,2.75,35.48,14.1,44.07,30.76,9,17.2,8.21,35.7-2.24,50.89-3.55,5.31-5.79,10.07-5,10.8s6.91,3.12,13.63,5.31c44.25,13.91,80.67,17,98.4,8.42,9.53-4.76,27.46-21.42,26.33-24.72-.37-1.09-21.47-11.71-47.24-24-25.58-12.27-47.24-23.07-48-24.36A9.52,9.52,0,0,1,931,539.63c4.48-2.93,5.79-2.38,55.45,21.24,53.78,25.63,59.94,27.64,79,24.89,11.77-1.83,20.55-9.7,24.28-21.78,5.23-17.2,9-13.91-56.39-50.89-32.68-18.48-60.88-35.14-62.56-37-1.87-1.65-3.36-4.39-3.36-5.85,0-4.22,7.48-10.44,11.21-9.52,1.87.56,31.18,16.66,65.17,35.88,61.06,34.6,61.63,35,72.64,35,14,0,22-2.74,29.88-9.89,7.27-6.59,10.27-15.19,9.33-27.27l-.55-9-71-41.92c-39-23.07-72.08-43.58-73.57-45.58-2.05-2.93-2.05-4.76-.55-8.24,4.29-9.15,9.15-7,89.44,40.46L1175.65,475l14-.54c11-.36,15.31-1.46,20.16-4.76,13.82-9.89,17.74-30.21,8.22-44.12-6.16-9-28.57-27.27-77.87-63.33-79.72-58.41-137.61-94.48-215.29-133.65l-17.37-8.79L890.14,225l-17.55,5.13-12.7,15.56c-31.18,38.08-74.13,60.6-112,58.58-14.57-.73-20.17-3.3-27.64-13.18-3.18-4-3.92-7.51-3.73-18.13.18-19.4,7.28-33.13,41.27-80.54,8.58-11.9,15.49-22.33,15.49-22.88,0-.73-10.27-2.93-22.78-4.76-29.88-4.39-44.25-8.78-60.88-18.67-7.46-4.4-13.82-8.06-14-8.06S647.77,185.79,614.15,244.37Z" transform="translate(-136.44 -44)"/><path class="cls-3" d="M616,402.53c-6.34,3.48-29.31,34.23-31.75,42.29-4.67,17,10.83,38.26,30.63,41.73,12.14,2.2,18.49-2.19,34.17-22.69,12.89-17.21,14-19.23,14-27.46,0-11.35-2.43-17.76-9.9-25.45C642.72,400.15,627.23,396.68,616,402.53Z" transform="translate(-136.44 -44)"/><path class="cls-3" d="M718,409.68c-4.11,1.83-15.31,15.38-39,47.05-18.3,24.35-34.36,46.49-35.66,49.06-9.15,17.21,7.66,43.58,28.94,45.58,16.06,1.46,18.3-.55,46.3-37.9,47.25-63,45.38-59.86,45.38-69.56C763.92,420.29,737.77,400.71,718,409.68Z" transform="translate(-136.44 -44)"/><path class="cls-3" d="M774.18,475.76c-5.42,2.74-55.09,66.81-60.13,77.62C705.65,571.5,721.9,597,743.18,599c15.69,1.46,18.11-.55,43.69-35,34.18-46.13,33.06-44.3,33.06-55.1,0-11.71-5.61-22-15.88-28.93C794.72,473.56,782,471.74,774.18,475.76Z" transform="translate(-136.44 -44)"/><path class="cls-3" d="M830.57,542.21c-6.73,4-40,48.69-42.58,57.12-4.11,13.18,5.42,30.75,20.92,38.62,8.78,4.4,17.73,4.4,25.39.18,7.28-3.85,40.89-47.77,43.7-57.11,2.79-9.16-.57-20.32-9.15-29.66C857.65,539.1,841.78,535.26,830.57,542.21Z" transform="translate(-136.44 -44)"/></svg>